%TF.GenerationSoftware,KiCad,Pcbnew,10.0.3-10.0.3~ubuntu26.04.1*%
%TF.CreationDate,2026-06-21T20:34:57+05:30*%
%TF.ProjectId,power,706f7765-722e-46b6-9963-61645f706362,rev?*%
%TF.SameCoordinates,Original*%
%TF.FileFunction,Legend,Top*%
%TF.FilePolarity,Positive*%
%FSLAX46Y46*%
G04 Gerber Fmt 4.6, Leading zero omitted, Abs format (unit mm)*
G04 Created by KiCad (PCBNEW 10.0.3-10.0.3~ubuntu26.04.1) date 2026-06-21 20:34:57*
%MOMM*%
%LPD*%
G01*
G04 APERTURE LIST*
%ADD10C,0.150000*%
%ADD11C,0.120000*%
%ADD12C,0.127000*%
%ADD13C,0.100000*%
%ADD14C,0.200000*%
G04 APERTURE END LIST*
D10*
X180093333Y-105859580D02*
X180045714Y-105907200D01*
X180045714Y-105907200D02*
X179902857Y-105954819D01*
X179902857Y-105954819D02*
X179807619Y-105954819D01*
X179807619Y-105954819D02*
X179664762Y-105907200D01*
X179664762Y-105907200D02*
X179569524Y-105811961D01*
X179569524Y-105811961D02*
X179521905Y-105716723D01*
X179521905Y-105716723D02*
X179474286Y-105526247D01*
X179474286Y-105526247D02*
X179474286Y-105383390D01*
X179474286Y-105383390D02*
X179521905Y-105192914D01*
X179521905Y-105192914D02*
X179569524Y-105097676D01*
X179569524Y-105097676D02*
X179664762Y-105002438D01*
X179664762Y-105002438D02*
X179807619Y-104954819D01*
X179807619Y-104954819D02*
X179902857Y-104954819D01*
X179902857Y-104954819D02*
X180045714Y-105002438D01*
X180045714Y-105002438D02*
X180093333Y-105050057D01*
X180950476Y-105288152D02*
X180950476Y-105954819D01*
X180712381Y-104907200D02*
X180474286Y-105621485D01*
X180474286Y-105621485D02*
X181093333Y-105621485D01*
X189646666Y-105654819D02*
X189646666Y-106369104D01*
X189646666Y-106369104D02*
X189599047Y-106511961D01*
X189599047Y-106511961D02*
X189503809Y-106607200D01*
X189503809Y-106607200D02*
X189360952Y-106654819D01*
X189360952Y-106654819D02*
X189265714Y-106654819D01*
X190646666Y-106654819D02*
X190075238Y-106654819D01*
X190360952Y-106654819D02*
X190360952Y-105654819D01*
X190360952Y-105654819D02*
X190265714Y-105797676D01*
X190265714Y-105797676D02*
X190170476Y-105892914D01*
X190170476Y-105892914D02*
X190075238Y-105940533D01*
X188199285Y-103551009D02*
X188342142Y-103598628D01*
X188342142Y-103598628D02*
X188389761Y-103646247D01*
X188389761Y-103646247D02*
X188437380Y-103741485D01*
X188437380Y-103741485D02*
X188437380Y-103884342D01*
X188437380Y-103884342D02*
X188389761Y-103979580D01*
X188389761Y-103979580D02*
X188342142Y-104027200D01*
X188342142Y-104027200D02*
X188246904Y-104074819D01*
X188246904Y-104074819D02*
X187865952Y-104074819D01*
X187865952Y-104074819D02*
X187865952Y-103074819D01*
X187865952Y-103074819D02*
X188199285Y-103074819D01*
X188199285Y-103074819D02*
X188294523Y-103122438D01*
X188294523Y-103122438D02*
X188342142Y-103170057D01*
X188342142Y-103170057D02*
X188389761Y-103265295D01*
X188389761Y-103265295D02*
X188389761Y-103360533D01*
X188389761Y-103360533D02*
X188342142Y-103455771D01*
X188342142Y-103455771D02*
X188294523Y-103503390D01*
X188294523Y-103503390D02*
X188199285Y-103551009D01*
X188199285Y-103551009D02*
X187865952Y-103551009D01*
X188723095Y-103074819D02*
X189294523Y-103074819D01*
X189008809Y-104074819D02*
X189008809Y-103074819D01*
X189532619Y-103074819D02*
X190151666Y-103074819D01*
X190151666Y-103074819D02*
X189818333Y-103455771D01*
X189818333Y-103455771D02*
X189961190Y-103455771D01*
X189961190Y-103455771D02*
X190056428Y-103503390D01*
X190056428Y-103503390D02*
X190104047Y-103551009D01*
X190104047Y-103551009D02*
X190151666Y-103646247D01*
X190151666Y-103646247D02*
X190151666Y-103884342D01*
X190151666Y-103884342D02*
X190104047Y-103979580D01*
X190104047Y-103979580D02*
X190056428Y-104027200D01*
X190056428Y-104027200D02*
X189961190Y-104074819D01*
X189961190Y-104074819D02*
X189675476Y-104074819D01*
X189675476Y-104074819D02*
X189580238Y-104027200D01*
X189580238Y-104027200D02*
X189532619Y-103979580D01*
X185924580Y-110436666D02*
X185972200Y-110484285D01*
X185972200Y-110484285D02*
X186019819Y-110627142D01*
X186019819Y-110627142D02*
X186019819Y-110722380D01*
X186019819Y-110722380D02*
X185972200Y-110865237D01*
X185972200Y-110865237D02*
X185876961Y-110960475D01*
X185876961Y-110960475D02*
X185781723Y-111008094D01*
X185781723Y-111008094D02*
X185591247Y-111055713D01*
X185591247Y-111055713D02*
X185448390Y-111055713D01*
X185448390Y-111055713D02*
X185257914Y-111008094D01*
X185257914Y-111008094D02*
X185162676Y-110960475D01*
X185162676Y-110960475D02*
X185067438Y-110865237D01*
X185067438Y-110865237D02*
X185019819Y-110722380D01*
X185019819Y-110722380D02*
X185019819Y-110627142D01*
X185019819Y-110627142D02*
X185067438Y-110484285D01*
X185067438Y-110484285D02*
X185115057Y-110436666D01*
X185019819Y-110103332D02*
X185019819Y-109484285D01*
X185019819Y-109484285D02*
X185400771Y-109817618D01*
X185400771Y-109817618D02*
X185400771Y-109674761D01*
X185400771Y-109674761D02*
X185448390Y-109579523D01*
X185448390Y-109579523D02*
X185496009Y-109531904D01*
X185496009Y-109531904D02*
X185591247Y-109484285D01*
X185591247Y-109484285D02*
X185829342Y-109484285D01*
X185829342Y-109484285D02*
X185924580Y-109531904D01*
X185924580Y-109531904D02*
X185972200Y-109579523D01*
X185972200Y-109579523D02*
X186019819Y-109674761D01*
X186019819Y-109674761D02*
X186019819Y-109960475D01*
X186019819Y-109960475D02*
X185972200Y-110055713D01*
X185972200Y-110055713D02*
X185924580Y-110103332D01*
X172959285Y-118771009D02*
X173102142Y-118818628D01*
X173102142Y-118818628D02*
X173149761Y-118866247D01*
X173149761Y-118866247D02*
X173197380Y-118961485D01*
X173197380Y-118961485D02*
X173197380Y-119104342D01*
X173197380Y-119104342D02*
X173149761Y-119199580D01*
X173149761Y-119199580D02*
X173102142Y-119247200D01*
X173102142Y-119247200D02*
X173006904Y-119294819D01*
X173006904Y-119294819D02*
X172625952Y-119294819D01*
X172625952Y-119294819D02*
X172625952Y-118294819D01*
X172625952Y-118294819D02*
X172959285Y-118294819D01*
X172959285Y-118294819D02*
X173054523Y-118342438D01*
X173054523Y-118342438D02*
X173102142Y-118390057D01*
X173102142Y-118390057D02*
X173149761Y-118485295D01*
X173149761Y-118485295D02*
X173149761Y-118580533D01*
X173149761Y-118580533D02*
X173102142Y-118675771D01*
X173102142Y-118675771D02*
X173054523Y-118723390D01*
X173054523Y-118723390D02*
X172959285Y-118771009D01*
X172959285Y-118771009D02*
X172625952Y-118771009D01*
X173483095Y-118294819D02*
X174054523Y-118294819D01*
X173768809Y-119294819D02*
X173768809Y-118294819D01*
X174911666Y-119294819D02*
X174340238Y-119294819D01*
X174625952Y-119294819D02*
X174625952Y-118294819D01*
X174625952Y-118294819D02*
X174530714Y-118437676D01*
X174530714Y-118437676D02*
X174435476Y-118532914D01*
X174435476Y-118532914D02*
X174340238Y-118580533D01*
X149507448Y-113457553D02*
X149650426Y-113505212D01*
X149650426Y-113505212D02*
X149888724Y-113505212D01*
X149888724Y-113505212D02*
X149984043Y-113457553D01*
X149984043Y-113457553D02*
X150031702Y-113409893D01*
X150031702Y-113409893D02*
X150079362Y-113314574D01*
X150079362Y-113314574D02*
X150079362Y-113219255D01*
X150079362Y-113219255D02*
X150031702Y-113123936D01*
X150031702Y-113123936D02*
X149984043Y-113076276D01*
X149984043Y-113076276D02*
X149888724Y-113028617D01*
X149888724Y-113028617D02*
X149698086Y-112980957D01*
X149698086Y-112980957D02*
X149602767Y-112933298D01*
X149602767Y-112933298D02*
X149555107Y-112885638D01*
X149555107Y-112885638D02*
X149507448Y-112790319D01*
X149507448Y-112790319D02*
X149507448Y-112695000D01*
X149507448Y-112695000D02*
X149555107Y-112599681D01*
X149555107Y-112599681D02*
X149602767Y-112552022D01*
X149602767Y-112552022D02*
X149698086Y-112504362D01*
X149698086Y-112504362D02*
X149936383Y-112504362D01*
X149936383Y-112504362D02*
X150079362Y-112552022D01*
X151032552Y-113505212D02*
X150460638Y-113505212D01*
X150746595Y-113505212D02*
X150746595Y-112504362D01*
X150746595Y-112504362D02*
X150651276Y-112647341D01*
X150651276Y-112647341D02*
X150555957Y-112742660D01*
X150555957Y-112742660D02*
X150460638Y-112790319D01*
X147809285Y-118771009D02*
X147952142Y-118818628D01*
X147952142Y-118818628D02*
X147999761Y-118866247D01*
X147999761Y-118866247D02*
X148047380Y-118961485D01*
X148047380Y-118961485D02*
X148047380Y-119104342D01*
X148047380Y-119104342D02*
X147999761Y-119199580D01*
X147999761Y-119199580D02*
X147952142Y-119247200D01*
X147952142Y-119247200D02*
X147856904Y-119294819D01*
X147856904Y-119294819D02*
X147475952Y-119294819D01*
X147475952Y-119294819D02*
X147475952Y-118294819D01*
X147475952Y-118294819D02*
X147809285Y-118294819D01*
X147809285Y-118294819D02*
X147904523Y-118342438D01*
X147904523Y-118342438D02*
X147952142Y-118390057D01*
X147952142Y-118390057D02*
X147999761Y-118485295D01*
X147999761Y-118485295D02*
X147999761Y-118580533D01*
X147999761Y-118580533D02*
X147952142Y-118675771D01*
X147952142Y-118675771D02*
X147904523Y-118723390D01*
X147904523Y-118723390D02*
X147809285Y-118771009D01*
X147809285Y-118771009D02*
X147475952Y-118771009D01*
X148333095Y-118294819D02*
X148904523Y-118294819D01*
X148618809Y-119294819D02*
X148618809Y-118294819D01*
X149190238Y-118390057D02*
X149237857Y-118342438D01*
X149237857Y-118342438D02*
X149333095Y-118294819D01*
X149333095Y-118294819D02*
X149571190Y-118294819D01*
X149571190Y-118294819D02*
X149666428Y-118342438D01*
X149666428Y-118342438D02*
X149714047Y-118390057D01*
X149714047Y-118390057D02*
X149761666Y-118485295D01*
X149761666Y-118485295D02*
X149761666Y-118580533D01*
X149761666Y-118580533D02*
X149714047Y-118723390D01*
X149714047Y-118723390D02*
X149142619Y-119294819D01*
X149142619Y-119294819D02*
X149761666Y-119294819D01*
X158929819Y-114936666D02*
X158929819Y-115412856D01*
X158929819Y-115412856D02*
X157929819Y-115412856D01*
X158929819Y-114079523D02*
X158929819Y-114650951D01*
X158929819Y-114365237D02*
X157929819Y-114365237D01*
X157929819Y-114365237D02*
X158072676Y-114460475D01*
X158072676Y-114460475D02*
X158167914Y-114555713D01*
X158167914Y-114555713D02*
X158215533Y-114650951D01*
X177240595Y-107224819D02*
X177240595Y-108034342D01*
X177240595Y-108034342D02*
X177288214Y-108129580D01*
X177288214Y-108129580D02*
X177335833Y-108177200D01*
X177335833Y-108177200D02*
X177431071Y-108224819D01*
X177431071Y-108224819D02*
X177621547Y-108224819D01*
X177621547Y-108224819D02*
X177716785Y-108177200D01*
X177716785Y-108177200D02*
X177764404Y-108129580D01*
X177764404Y-108129580D02*
X177812023Y-108034342D01*
X177812023Y-108034342D02*
X177812023Y-107224819D01*
X178812023Y-108224819D02*
X178240595Y-108224819D01*
X178526309Y-108224819D02*
X178526309Y-107224819D01*
X178526309Y-107224819D02*
X178431071Y-107367676D01*
X178431071Y-107367676D02*
X178335833Y-107462914D01*
X178335833Y-107462914D02*
X178240595Y-107510533D01*
X169783333Y-109689580D02*
X169735714Y-109737200D01*
X169735714Y-109737200D02*
X169592857Y-109784819D01*
X169592857Y-109784819D02*
X169497619Y-109784819D01*
X169497619Y-109784819D02*
X169354762Y-109737200D01*
X169354762Y-109737200D02*
X169259524Y-109641961D01*
X169259524Y-109641961D02*
X169211905Y-109546723D01*
X169211905Y-109546723D02*
X169164286Y-109356247D01*
X169164286Y-109356247D02*
X169164286Y-109213390D01*
X169164286Y-109213390D02*
X169211905Y-109022914D01*
X169211905Y-109022914D02*
X169259524Y-108927676D01*
X169259524Y-108927676D02*
X169354762Y-108832438D01*
X169354762Y-108832438D02*
X169497619Y-108784819D01*
X169497619Y-108784819D02*
X169592857Y-108784819D01*
X169592857Y-108784819D02*
X169735714Y-108832438D01*
X169735714Y-108832438D02*
X169783333Y-108880057D01*
X170735714Y-109784819D02*
X170164286Y-109784819D01*
X170450000Y-109784819D02*
X170450000Y-108784819D01*
X170450000Y-108784819D02*
X170354762Y-108927676D01*
X170354762Y-108927676D02*
X170259524Y-109022914D01*
X170259524Y-109022914D02*
X170164286Y-109070533D01*
X161522976Y-106884819D02*
X162189642Y-107884819D01*
X162189642Y-106884819D02*
X161522976Y-107884819D01*
X163094404Y-107884819D02*
X162522976Y-107884819D01*
X162808690Y-107884819D02*
X162808690Y-106884819D01*
X162808690Y-106884819D02*
X162713452Y-107027676D01*
X162713452Y-107027676D02*
X162618214Y-107122914D01*
X162618214Y-107122914D02*
X162522976Y-107170533D01*
X157419580Y-110056666D02*
X157467200Y-110104285D01*
X157467200Y-110104285D02*
X157514819Y-110247142D01*
X157514819Y-110247142D02*
X157514819Y-110342380D01*
X157514819Y-110342380D02*
X157467200Y-110485237D01*
X157467200Y-110485237D02*
X157371961Y-110580475D01*
X157371961Y-110580475D02*
X157276723Y-110628094D01*
X157276723Y-110628094D02*
X157086247Y-110675713D01*
X157086247Y-110675713D02*
X156943390Y-110675713D01*
X156943390Y-110675713D02*
X156752914Y-110628094D01*
X156752914Y-110628094D02*
X156657676Y-110580475D01*
X156657676Y-110580475D02*
X156562438Y-110485237D01*
X156562438Y-110485237D02*
X156514819Y-110342380D01*
X156514819Y-110342380D02*
X156514819Y-110247142D01*
X156514819Y-110247142D02*
X156562438Y-110104285D01*
X156562438Y-110104285D02*
X156610057Y-110056666D01*
X156610057Y-109675713D02*
X156562438Y-109628094D01*
X156562438Y-109628094D02*
X156514819Y-109532856D01*
X156514819Y-109532856D02*
X156514819Y-109294761D01*
X156514819Y-109294761D02*
X156562438Y-109199523D01*
X156562438Y-109199523D02*
X156610057Y-109151904D01*
X156610057Y-109151904D02*
X156705295Y-109104285D01*
X156705295Y-109104285D02*
X156800533Y-109104285D01*
X156800533Y-109104285D02*
X156943390Y-109151904D01*
X156943390Y-109151904D02*
X157514819Y-109723332D01*
X157514819Y-109723332D02*
X157514819Y-109104285D01*
X208679819Y-109845833D02*
X209394104Y-109845833D01*
X209394104Y-109845833D02*
X209536961Y-109893452D01*
X209536961Y-109893452D02*
X209632200Y-109988690D01*
X209632200Y-109988690D02*
X209679819Y-110131547D01*
X209679819Y-110131547D02*
X209679819Y-110226785D01*
X208775057Y-109417261D02*
X208727438Y-109369642D01*
X208727438Y-109369642D02*
X208679819Y-109274404D01*
X208679819Y-109274404D02*
X208679819Y-109036309D01*
X208679819Y-109036309D02*
X208727438Y-108941071D01*
X208727438Y-108941071D02*
X208775057Y-108893452D01*
X208775057Y-108893452D02*
X208870295Y-108845833D01*
X208870295Y-108845833D02*
X208965533Y-108845833D01*
X208965533Y-108845833D02*
X209108390Y-108893452D01*
X209108390Y-108893452D02*
X209679819Y-109464880D01*
X209679819Y-109464880D02*
X209679819Y-108845833D01*
X163049285Y-103281009D02*
X163192142Y-103328628D01*
X163192142Y-103328628D02*
X163239761Y-103376247D01*
X163239761Y-103376247D02*
X163287380Y-103471485D01*
X163287380Y-103471485D02*
X163287380Y-103614342D01*
X163287380Y-103614342D02*
X163239761Y-103709580D01*
X163239761Y-103709580D02*
X163192142Y-103757200D01*
X163192142Y-103757200D02*
X163096904Y-103804819D01*
X163096904Y-103804819D02*
X162715952Y-103804819D01*
X162715952Y-103804819D02*
X162715952Y-102804819D01*
X162715952Y-102804819D02*
X163049285Y-102804819D01*
X163049285Y-102804819D02*
X163144523Y-102852438D01*
X163144523Y-102852438D02*
X163192142Y-102900057D01*
X163192142Y-102900057D02*
X163239761Y-102995295D01*
X163239761Y-102995295D02*
X163239761Y-103090533D01*
X163239761Y-103090533D02*
X163192142Y-103185771D01*
X163192142Y-103185771D02*
X163144523Y-103233390D01*
X163144523Y-103233390D02*
X163049285Y-103281009D01*
X163049285Y-103281009D02*
X162715952Y-103281009D01*
X163573095Y-102804819D02*
X164144523Y-102804819D01*
X163858809Y-103804819D02*
X163858809Y-102804819D01*
X164906428Y-103138152D02*
X164906428Y-103804819D01*
X164668333Y-102757200D02*
X164430238Y-103471485D01*
X164430238Y-103471485D02*
X165049285Y-103471485D01*
%TO.C,C4*%
D11*
X179998748Y-106445000D02*
X180521252Y-106445000D01*
X179998748Y-107915000D02*
X180521252Y-107915000D01*
%TO.C,J1*%
X188650000Y-107200000D02*
X189980000Y-107200000D01*
X188650000Y-108530000D02*
X188650000Y-107200000D01*
X188650000Y-109800000D02*
X188650000Y-117480000D01*
X188650000Y-109800000D02*
X191310000Y-109800000D01*
X188650000Y-117480000D02*
X191310000Y-117480000D01*
X191310000Y-109800000D02*
X191310000Y-117480000D01*
%TO.C,BT3*%
D12*
X170760000Y-83461400D02*
X170760000Y-89290000D01*
X170760000Y-96912970D02*
X170760000Y-95090000D01*
X173630870Y-99931460D02*
X170760000Y-96912970D01*
X173999000Y-99581400D02*
X173630870Y-99931460D01*
X188731000Y-99581400D02*
X173999000Y-99581400D01*
X189099130Y-99931460D02*
X188731000Y-99581400D01*
X189099130Y-99931460D02*
X191970000Y-96912970D01*
X191970000Y-83461400D02*
X170760000Y-83461400D01*
X191970000Y-83461400D02*
X191970000Y-89290000D01*
X191970000Y-96912970D02*
X191970000Y-95090000D01*
%TO.C,C3*%
D11*
X180630000Y-110481252D02*
X180630000Y-109958748D01*
X182100000Y-110481252D02*
X182100000Y-109958748D01*
%TO.C,BT1*%
D12*
X170760000Y-125547030D02*
X170760000Y-127370000D01*
X170760000Y-138998600D02*
X170760000Y-133170000D01*
X170760000Y-138998600D02*
X191970000Y-138998600D01*
X173630870Y-122528540D02*
X170760000Y-125547030D01*
X173630870Y-122528540D02*
X173999000Y-122878600D01*
X173999000Y-122878600D02*
X188731000Y-122878600D01*
X188731000Y-122878600D02*
X189099130Y-122528540D01*
X189099130Y-122528540D02*
X191970000Y-125547030D01*
X191970000Y-125547030D02*
X191970000Y-127370000D01*
X191970000Y-138998600D02*
X191970000Y-133170000D01*
%TO.C,S1*%
D13*
X145000000Y-105440000D02*
X145000000Y-106440000D01*
X145000000Y-114440000D02*
X145000000Y-113440000D01*
X148500000Y-105440000D02*
X145000000Y-105440000D01*
X148500000Y-106440000D02*
X148500000Y-105440000D01*
X148500000Y-113440000D02*
X148500000Y-114440000D01*
X148500000Y-114440000D02*
X145000000Y-114440000D01*
D14*
X149100000Y-107340000D02*
G75*
G02*
X149100000Y-107540000I0J-100000D01*
G01*
X149100000Y-107540000D02*
G75*
G02*
X149100000Y-107340000I0J100000D01*
G01*
%TO.C,BT2*%
D12*
X145610000Y-125547030D02*
X145610000Y-127370000D01*
X145610000Y-138998600D02*
X145610000Y-133170000D01*
X145610000Y-138998600D02*
X166820000Y-138998600D01*
X148480870Y-122528540D02*
X145610000Y-125547030D01*
X148480870Y-122528540D02*
X148849000Y-122878600D01*
X148849000Y-122878600D02*
X163581000Y-122878600D01*
X163581000Y-122878600D02*
X163949130Y-122528540D01*
X163949130Y-122528540D02*
X166820000Y-125547030D01*
X166820000Y-125547030D02*
X166820000Y-127370000D01*
X166820000Y-138998600D02*
X166820000Y-133170000D01*
%TO.C,L1*%
X160110000Y-117445000D02*
X160110000Y-112445000D01*
X165110000Y-112445000D02*
X165110000Y-117445000D01*
%TO.C,U1*%
D11*
X178002500Y-108610000D02*
X177202500Y-108610000D01*
X178002500Y-108610000D02*
X178802500Y-108610000D01*
X178002500Y-111730000D02*
X177202500Y-111730000D01*
X178002500Y-111730000D02*
X178802500Y-111730000D01*
X176702500Y-108660000D02*
X176462500Y-108330000D01*
X176942500Y-108330000D01*
X176702500Y-108660000D01*
G36*
X176702500Y-108660000D02*
G01*
X176462500Y-108330000D01*
X176942500Y-108330000D01*
X176702500Y-108660000D01*
G37*
%TO.C,C1*%
X165195000Y-110021252D02*
X165195000Y-109498748D01*
X166665000Y-110021252D02*
X166665000Y-109498748D01*
%TO.C,X1*%
X162332500Y-108270000D02*
X161532500Y-108270000D01*
X162332500Y-108270000D02*
X163132500Y-108270000D01*
X162332500Y-111390000D02*
X161532500Y-111390000D01*
X162332500Y-111390000D02*
X163132500Y-111390000D01*
X161032500Y-108320000D02*
X160792500Y-107990000D01*
X161272500Y-107990000D01*
X161032500Y-108320000D01*
G36*
X161032500Y-108320000D02*
G01*
X160792500Y-107990000D01*
X161272500Y-107990000D01*
X161032500Y-108320000D01*
G37*
%TO.C,C2*%
X158005000Y-110151252D02*
X158005000Y-109628748D01*
X159475000Y-110151252D02*
X159475000Y-109628748D01*
%TO.C,J2*%
D14*
X198960000Y-107337500D02*
X201500000Y-107337500D01*
X198960000Y-117497500D02*
X198960000Y-107337500D01*
X201500000Y-117497500D02*
X198960000Y-117497500D01*
X201500000Y-117497500D02*
X201500000Y-107337500D01*
X195050000Y-106687500D02*
G75*
G02*
X194850000Y-106687500I-100000J0D01*
G01*
X194850000Y-106687500D02*
G75*
G02*
X195050000Y-106687500I100000J0D01*
G01*
%TO.C,BT4*%
D12*
X145610000Y-83191400D02*
X145610000Y-89020000D01*
X145610000Y-96642970D02*
X145610000Y-94820000D01*
X148480870Y-99661460D02*
X145610000Y-96642970D01*
X148849000Y-99311400D02*
X148480870Y-99661460D01*
X163581000Y-99311400D02*
X148849000Y-99311400D01*
X163949130Y-99661460D02*
X163581000Y-99311400D01*
X163949130Y-99661460D02*
X166820000Y-96642970D01*
X166820000Y-83191400D02*
X145610000Y-83191400D01*
X166820000Y-83191400D02*
X166820000Y-89020000D01*
X166820000Y-96642970D02*
X166820000Y-94820000D01*
%TD*%
M02*
