%TF.GenerationSoftware,KiCad,Pcbnew,10.0.3-10.0.3~ubuntu26.04.1*%
%TF.CreationDate,2026-06-21T20:34:56+05:30*%
%TF.ProjectId,power,706f7765-722e-46b6-9963-61645f706362,rev?*%
%TF.SameCoordinates,Original*%
%TF.FileFunction,Copper,L2,Bot*%
%TF.FilePolarity,Positive*%
%FSLAX46Y46*%
G04 Gerber Fmt 4.6, Leading zero omitted, Abs format (unit mm)*
G04 Created by KiCad (PCBNEW 10.0.3-10.0.3~ubuntu26.04.1) date 2026-06-21 20:34:56*
%MOMM*%
%LPD*%
G01*
G04 APERTURE LIST*
%TA.AperFunction,ComponentPad*%
%ADD10R,1.700000X1.700000*%
%TD*%
%TA.AperFunction,ComponentPad*%
%ADD11O,1.700000X1.700000*%
%TD*%
%TA.AperFunction,ViaPad*%
%ADD12C,0.600000*%
%TD*%
%TA.AperFunction,Conductor*%
%ADD13C,0.200000*%
%TD*%
%TA.AperFunction,Conductor*%
%ADD14C,0.500000*%
%TD*%
G04 APERTURE END LIST*
D10*
%TO.P,J1,1,Pin_1*%
%TO.N,BATT+*%
X189980000Y-108530000D03*
D11*
%TO.P,J1,2,Pin_2*%
%TO.N,V_BOOST*%
X189980000Y-111070000D03*
%TO.P,J1,3,Pin_3*%
%TO.N,3.3v*%
X189980000Y-113610000D03*
%TO.P,J1,4,Pin_4*%
%TO.N,GND*%
X189980000Y-116150000D03*
%TD*%
D12*
%TO.N,Net-(S1-2-_C)*%
X151810000Y-109950000D03*
X151840000Y-112070000D03*
%TO.N,GND*%
X165960000Y-107750000D03*
X185740000Y-117510000D03*
X185740000Y-120060000D03*
X160350000Y-107000000D03*
%TO.N,3.3v*%
X187950000Y-113860000D03*
X183140000Y-105770000D03*
%TO.N,Net-(X1-Lx)*%
X168440000Y-107560000D03*
X165390000Y-116670000D03*
%TD*%
%TO.N,Net-(S1-2-_C)*%
D13*
X151840000Y-111710000D02*
X151810000Y-111680000D01*
X151840000Y-112070000D02*
X151840000Y-111710000D01*
X151810000Y-111680000D02*
X151810000Y-109950000D01*
%TO.N,GND*%
D14*
X165960000Y-107750000D02*
X165210000Y-107000000D01*
X165210000Y-107000000D02*
X160350000Y-107000000D01*
X185740000Y-117510000D02*
X185740000Y-120060000D01*
%TO.N,3.3v*%
X187950000Y-113860000D02*
X187950000Y-110580000D01*
X187950000Y-110580000D02*
X183140000Y-105770000D01*
%TO.N,Net-(X1-Lx)*%
D13*
X165390000Y-116670000D02*
X168440000Y-113620000D01*
X168440000Y-113620000D02*
X168440000Y-107560000D01*
%TD*%
%TA.AperFunction,Conductor*%
%TO.N,GND*%
G36*
X202952539Y-81670185D02*
G01*
X202998294Y-81722989D01*
X203009500Y-81774500D01*
X203009500Y-140915500D01*
X202989815Y-140982539D01*
X202937011Y-141028294D01*
X202885500Y-141039500D01*
X144504500Y-141039500D01*
X144437461Y-141019815D01*
X144391706Y-140967011D01*
X144380500Y-140915500D01*
X144380500Y-116591153D01*
X164589500Y-116591153D01*
X164589500Y-116748846D01*
X164620261Y-116903489D01*
X164620264Y-116903501D01*
X164680602Y-117049172D01*
X164680609Y-117049185D01*
X164768210Y-117180288D01*
X164768213Y-117180292D01*
X164879707Y-117291786D01*
X164879711Y-117291789D01*
X165010814Y-117379390D01*
X165010827Y-117379397D01*
X165156498Y-117439735D01*
X165156503Y-117439737D01*
X165292341Y-117466757D01*
X165311153Y-117470499D01*
X165311156Y-117470500D01*
X165311158Y-117470500D01*
X165468844Y-117470500D01*
X165468845Y-117470499D01*
X165623497Y-117439737D01*
X165769179Y-117379394D01*
X165900289Y-117291789D01*
X166011789Y-117180289D01*
X166099394Y-117049179D01*
X166159737Y-116903497D01*
X166179113Y-116806085D01*
X166190638Y-116748150D01*
X166223023Y-116686239D01*
X166224519Y-116684715D01*
X168798506Y-114110727D01*
X168798511Y-114110724D01*
X168808714Y-114100520D01*
X168808716Y-114100520D01*
X168920520Y-113988716D01*
X168999577Y-113851784D01*
X169040500Y-113699057D01*
X169040500Y-108139765D01*
X169060185Y-108072726D01*
X169061398Y-108070874D01*
X169149390Y-107939185D01*
X169149390Y-107939184D01*
X169149394Y-107939179D01*
X169209737Y-107793497D01*
X169240500Y-107638842D01*
X169240500Y-107481158D01*
X169240500Y-107481155D01*
X169240499Y-107481153D01*
X169209738Y-107326510D01*
X169209737Y-107326503D01*
X169172335Y-107236206D01*
X169149397Y-107180827D01*
X169149390Y-107180814D01*
X169061789Y-107049711D01*
X169061786Y-107049707D01*
X168950292Y-106938213D01*
X168950288Y-106938210D01*
X168819185Y-106850609D01*
X168819172Y-106850602D01*
X168673501Y-106790264D01*
X168673489Y-106790261D01*
X168518845Y-106759500D01*
X168518842Y-106759500D01*
X168361158Y-106759500D01*
X168361155Y-106759500D01*
X168206510Y-106790261D01*
X168206498Y-106790264D01*
X168060827Y-106850602D01*
X168060814Y-106850609D01*
X167929711Y-106938210D01*
X167929707Y-106938213D01*
X167818213Y-107049707D01*
X167818210Y-107049711D01*
X167730609Y-107180814D01*
X167730602Y-107180827D01*
X167670264Y-107326498D01*
X167670261Y-107326510D01*
X167639500Y-107481153D01*
X167639500Y-107638846D01*
X167670261Y-107793489D01*
X167670264Y-107793501D01*
X167730602Y-107939172D01*
X167730609Y-107939185D01*
X167818602Y-108070874D01*
X167839480Y-108137551D01*
X167839500Y-108139765D01*
X167839500Y-113319903D01*
X167819815Y-113386942D01*
X167803181Y-113407584D01*
X165375339Y-115835425D01*
X165314016Y-115868910D01*
X165311850Y-115869361D01*
X165156508Y-115900261D01*
X165156498Y-115900264D01*
X165010827Y-115960602D01*
X165010814Y-115960609D01*
X164879711Y-116048210D01*
X164879707Y-116048213D01*
X164768213Y-116159707D01*
X164768210Y-116159711D01*
X164680609Y-116290814D01*
X164680602Y-116290827D01*
X164620264Y-116436498D01*
X164620261Y-116436510D01*
X164589500Y-116591153D01*
X144380500Y-116591153D01*
X144380500Y-113267525D01*
X146199500Y-113267525D01*
X146199500Y-113412475D01*
X146237016Y-113552485D01*
X146237017Y-113552488D01*
X146309488Y-113678011D01*
X146309490Y-113678013D01*
X146309491Y-113678015D01*
X146411985Y-113780509D01*
X146411986Y-113780510D01*
X146411988Y-113780511D01*
X146537511Y-113852982D01*
X146537512Y-113852982D01*
X146537515Y-113852984D01*
X146677525Y-113890500D01*
X146677528Y-113890500D01*
X146822472Y-113890500D01*
X146822475Y-113890500D01*
X146962485Y-113852984D01*
X147088015Y-113780509D01*
X147190509Y-113678015D01*
X147262984Y-113552485D01*
X147300500Y-113412475D01*
X147300500Y-113267525D01*
X147262984Y-113127515D01*
X147242241Y-113091588D01*
X147190511Y-113001988D01*
X147190506Y-113001982D01*
X147088017Y-112899493D01*
X147088011Y-112899488D01*
X146962488Y-112827017D01*
X146962489Y-112827017D01*
X146951006Y-112823940D01*
X146822475Y-112789500D01*
X146677525Y-112789500D01*
X146548993Y-112823940D01*
X146537511Y-112827017D01*
X146411988Y-112899488D01*
X146411982Y-112899493D01*
X146309493Y-113001982D01*
X146309488Y-113001988D01*
X146237017Y-113127511D01*
X146237016Y-113127515D01*
X146199500Y-113267525D01*
X144380500Y-113267525D01*
X144380500Y-109871153D01*
X151009500Y-109871153D01*
X151009500Y-110028846D01*
X151040261Y-110183489D01*
X151040264Y-110183501D01*
X151100602Y-110329172D01*
X151100609Y-110329185D01*
X151188602Y-110460874D01*
X151209480Y-110527551D01*
X151209500Y-110529765D01*
X151209500Y-111535133D01*
X151189815Y-111602172D01*
X151188602Y-111604024D01*
X151130609Y-111690815D01*
X151130602Y-111690828D01*
X151070264Y-111836498D01*
X151070261Y-111836510D01*
X151039500Y-111991153D01*
X151039500Y-112148846D01*
X151070261Y-112303489D01*
X151070264Y-112303501D01*
X151130602Y-112449172D01*
X151130609Y-112449185D01*
X151218210Y-112580288D01*
X151218213Y-112580292D01*
X151329707Y-112691786D01*
X151329711Y-112691789D01*
X151460814Y-112779390D01*
X151460827Y-112779397D01*
X151575794Y-112827017D01*
X151606503Y-112839737D01*
X151761153Y-112870499D01*
X151761156Y-112870500D01*
X151761158Y-112870500D01*
X151918844Y-112870500D01*
X151918845Y-112870499D01*
X152073497Y-112839737D01*
X152194781Y-112789500D01*
X152219172Y-112779397D01*
X152219172Y-112779396D01*
X152219179Y-112779394D01*
X152350289Y-112691789D01*
X152461789Y-112580289D01*
X152549394Y-112449179D01*
X152609737Y-112303497D01*
X152640500Y-112148842D01*
X152640500Y-111991158D01*
X152640500Y-111991155D01*
X152640499Y-111991153D01*
X152632272Y-111949792D01*
X152609737Y-111836503D01*
X152549397Y-111690828D01*
X152549397Y-111690827D01*
X152549390Y-111690814D01*
X152461789Y-111559711D01*
X152461786Y-111559707D01*
X152446819Y-111544740D01*
X152413334Y-111483417D01*
X152410500Y-111457059D01*
X152410500Y-110529765D01*
X152430185Y-110462726D01*
X152431398Y-110460874D01*
X152519390Y-110329185D01*
X152519390Y-110329184D01*
X152519394Y-110329179D01*
X152579737Y-110183497D01*
X152610500Y-110028842D01*
X152610500Y-109871158D01*
X152610500Y-109871155D01*
X152610499Y-109871153D01*
X152583923Y-109737547D01*
X152579737Y-109716503D01*
X152540729Y-109622328D01*
X152519397Y-109570827D01*
X152519390Y-109570814D01*
X152431789Y-109439711D01*
X152431786Y-109439707D01*
X152320292Y-109328213D01*
X152320288Y-109328210D01*
X152189185Y-109240609D01*
X152189172Y-109240602D01*
X152043501Y-109180264D01*
X152043489Y-109180261D01*
X151888845Y-109149500D01*
X151888842Y-109149500D01*
X151731158Y-109149500D01*
X151731155Y-109149500D01*
X151576510Y-109180261D01*
X151576498Y-109180264D01*
X151430827Y-109240602D01*
X151430814Y-109240609D01*
X151299711Y-109328210D01*
X151299707Y-109328213D01*
X151188213Y-109439707D01*
X151188210Y-109439711D01*
X151100609Y-109570814D01*
X151100602Y-109570827D01*
X151040264Y-109716498D01*
X151040261Y-109716510D01*
X151009500Y-109871153D01*
X144380500Y-109871153D01*
X144380500Y-106467525D01*
X146199500Y-106467525D01*
X146199500Y-106612475D01*
X146237016Y-106752485D01*
X146237017Y-106752488D01*
X146309488Y-106878011D01*
X146309490Y-106878013D01*
X146309491Y-106878015D01*
X146411985Y-106980509D01*
X146411986Y-106980510D01*
X146411988Y-106980511D01*
X146537511Y-107052982D01*
X146537512Y-107052982D01*
X146537515Y-107052984D01*
X146677525Y-107090500D01*
X146677528Y-107090500D01*
X146822472Y-107090500D01*
X146822475Y-107090500D01*
X146962485Y-107052984D01*
X147088015Y-106980509D01*
X147190509Y-106878015D01*
X147262984Y-106752485D01*
X147300500Y-106612475D01*
X147300500Y-106467525D01*
X147262984Y-106327515D01*
X147235717Y-106280288D01*
X147190511Y-106201988D01*
X147190506Y-106201982D01*
X147088017Y-106099493D01*
X147088011Y-106099488D01*
X146962488Y-106027017D01*
X146962489Y-106027017D01*
X146951006Y-106023940D01*
X146822475Y-105989500D01*
X146677525Y-105989500D01*
X146548993Y-106023940D01*
X146537511Y-106027017D01*
X146411988Y-106099488D01*
X146411982Y-106099493D01*
X146309493Y-106201982D01*
X146309488Y-106201988D01*
X146237017Y-106327511D01*
X146237016Y-106327515D01*
X146199500Y-106467525D01*
X144380500Y-106467525D01*
X144380500Y-105691153D01*
X182339500Y-105691153D01*
X182339500Y-105848846D01*
X182370261Y-106003489D01*
X182370264Y-106003501D01*
X182430602Y-106149172D01*
X182430609Y-106149185D01*
X182518210Y-106280288D01*
X182518213Y-106280292D01*
X182629710Y-106391789D01*
X182743058Y-106467525D01*
X182760821Y-106479394D01*
X182784475Y-106489191D01*
X182824703Y-106516071D01*
X187163181Y-110854548D01*
X187196666Y-110915871D01*
X187199500Y-110942229D01*
X187199500Y-113555396D01*
X187190062Y-113602844D01*
X187180263Y-113626503D01*
X187180262Y-113626506D01*
X187180260Y-113626511D01*
X187149500Y-113781153D01*
X187149500Y-113938846D01*
X187180261Y-114093489D01*
X187180264Y-114093501D01*
X187240602Y-114239172D01*
X187240609Y-114239185D01*
X187328210Y-114370288D01*
X187328213Y-114370292D01*
X187439707Y-114481786D01*
X187439711Y-114481789D01*
X187570814Y-114569390D01*
X187570827Y-114569397D01*
X187716498Y-114629735D01*
X187716503Y-114629737D01*
X187871153Y-114660499D01*
X187871156Y-114660500D01*
X187871158Y-114660500D01*
X188028844Y-114660500D01*
X188028845Y-114660499D01*
X188183497Y-114629737D01*
X188329179Y-114569394D01*
X188460289Y-114481789D01*
X188571789Y-114370289D01*
X188613052Y-114308533D01*
X188666662Y-114263731D01*
X188735987Y-114255022D01*
X188799014Y-114285176D01*
X188821384Y-114314288D01*
X188822404Y-114313664D01*
X188824948Y-114317815D01*
X188949890Y-114489786D01*
X189100213Y-114640109D01*
X189272179Y-114765048D01*
X189272181Y-114765049D01*
X189272184Y-114765051D01*
X189281493Y-114769794D01*
X189332290Y-114817766D01*
X189349087Y-114885587D01*
X189326552Y-114951722D01*
X189281502Y-114990762D01*
X189272443Y-114995378D01*
X189100540Y-115120272D01*
X189100535Y-115120276D01*
X188950276Y-115270535D01*
X188950272Y-115270540D01*
X188825379Y-115442442D01*
X188728904Y-115631782D01*
X188663242Y-115833870D01*
X188663242Y-115833873D01*
X188652769Y-115900000D01*
X189546988Y-115900000D01*
X189514075Y-115957007D01*
X189480000Y-116084174D01*
X189480000Y-116215826D01*
X189514075Y-116342993D01*
X189546988Y-116400000D01*
X188652769Y-116400000D01*
X188663242Y-116466126D01*
X188663242Y-116466129D01*
X188728904Y-116668217D01*
X188825379Y-116857557D01*
X188950272Y-117029459D01*
X188950276Y-117029464D01*
X189100535Y-117179723D01*
X189100540Y-117179727D01*
X189272442Y-117304620D01*
X189461782Y-117401095D01*
X189663871Y-117466757D01*
X189730000Y-117477231D01*
X189730000Y-116583012D01*
X189787007Y-116615925D01*
X189914174Y-116650000D01*
X190045826Y-116650000D01*
X190172993Y-116615925D01*
X190230000Y-116583012D01*
X190230000Y-117477230D01*
X190296126Y-117466757D01*
X190296129Y-117466757D01*
X190498217Y-117401095D01*
X190687557Y-117304620D01*
X190859459Y-117179727D01*
X190859464Y-117179723D01*
X191009723Y-117029464D01*
X191009727Y-117029459D01*
X191134620Y-116857557D01*
X191231095Y-116668217D01*
X191296757Y-116466129D01*
X191296757Y-116466126D01*
X191307231Y-116400000D01*
X190413012Y-116400000D01*
X190445925Y-116342993D01*
X190480000Y-116215826D01*
X190480000Y-116084174D01*
X190445925Y-115957007D01*
X190413012Y-115900000D01*
X191307231Y-115900000D01*
X191296757Y-115833873D01*
X191296757Y-115833870D01*
X191231095Y-115631782D01*
X191134620Y-115442442D01*
X191009727Y-115270540D01*
X191009723Y-115270535D01*
X190859464Y-115120276D01*
X190859459Y-115120272D01*
X190687555Y-114995377D01*
X190678500Y-114990763D01*
X190627706Y-114942788D01*
X190610912Y-114874966D01*
X190633451Y-114808832D01*
X190678508Y-114769793D01*
X190687816Y-114765051D01*
X190767007Y-114707515D01*
X190859786Y-114640109D01*
X190859788Y-114640106D01*
X190859792Y-114640104D01*
X191010104Y-114489792D01*
X191010106Y-114489788D01*
X191010109Y-114489786D01*
X191135048Y-114317820D01*
X191135047Y-114317820D01*
X191135051Y-114317816D01*
X191231557Y-114128412D01*
X191297246Y-113926243D01*
X191330500Y-113716287D01*
X191330500Y-113503713D01*
X191297246Y-113293757D01*
X191231557Y-113091588D01*
X191135051Y-112902184D01*
X191135049Y-112902181D01*
X191135048Y-112902179D01*
X191010109Y-112730213D01*
X190859786Y-112579890D01*
X190687820Y-112454951D01*
X190687115Y-112454591D01*
X190679054Y-112450485D01*
X190628259Y-112402512D01*
X190611463Y-112334692D01*
X190633999Y-112268556D01*
X190679054Y-112229515D01*
X190687816Y-112225051D01*
X190792707Y-112148844D01*
X190859786Y-112100109D01*
X190859788Y-112100106D01*
X190859792Y-112100104D01*
X191010104Y-111949792D01*
X191010106Y-111949788D01*
X191010109Y-111949786D01*
X191135048Y-111777820D01*
X191135047Y-111777820D01*
X191135051Y-111777816D01*
X191231557Y-111588412D01*
X191297246Y-111386243D01*
X191330500Y-111176287D01*
X191330500Y-110963713D01*
X191297246Y-110753757D01*
X191231557Y-110551588D01*
X191135051Y-110362184D01*
X191135049Y-110362181D01*
X191135048Y-110362179D01*
X191010109Y-110190213D01*
X190896569Y-110076673D01*
X190863084Y-110015350D01*
X190868068Y-109945658D01*
X190909940Y-109889725D01*
X190940915Y-109872810D01*
X191072331Y-109823796D01*
X191187546Y-109737546D01*
X191273796Y-109622331D01*
X191324091Y-109487483D01*
X191330500Y-109427873D01*
X191330499Y-107632128D01*
X191324091Y-107572517D01*
X191290016Y-107481158D01*
X191273797Y-107437671D01*
X191273793Y-107437664D01*
X191187547Y-107322455D01*
X191187544Y-107322452D01*
X191072335Y-107236206D01*
X191072328Y-107236202D01*
X190937482Y-107185908D01*
X190937483Y-107185908D01*
X190877883Y-107179501D01*
X190877881Y-107179500D01*
X190877873Y-107179500D01*
X190877864Y-107179500D01*
X189082129Y-107179500D01*
X189082123Y-107179501D01*
X189022516Y-107185908D01*
X188887671Y-107236202D01*
X188887664Y-107236206D01*
X188772455Y-107322452D01*
X188772452Y-107322455D01*
X188686206Y-107437664D01*
X188686202Y-107437671D01*
X188635908Y-107572517D01*
X188629501Y-107632116D01*
X188629501Y-107632123D01*
X188629500Y-107632135D01*
X188629500Y-109427870D01*
X188629501Y-109427876D01*
X188635908Y-109487483D01*
X188686202Y-109622328D01*
X188686206Y-109622335D01*
X188772452Y-109737544D01*
X188772455Y-109737547D01*
X188887664Y-109823793D01*
X188887671Y-109823797D01*
X189019082Y-109872810D01*
X189075016Y-109914681D01*
X189099433Y-109980145D01*
X189084582Y-110048418D01*
X189063431Y-110076673D01*
X188949892Y-110190212D01*
X188857753Y-110317031D01*
X188802423Y-110359696D01*
X188732810Y-110365675D01*
X188671015Y-110333069D01*
X188642875Y-110291599D01*
X188615084Y-110224505D01*
X188615080Y-110224498D01*
X188532952Y-110101585D01*
X188508040Y-110076673D01*
X188428416Y-109997049D01*
X183886071Y-105454703D01*
X183859191Y-105414475D01*
X183849394Y-105390821D01*
X183849389Y-105390814D01*
X183761789Y-105259710D01*
X183650292Y-105148213D01*
X183650288Y-105148210D01*
X183519185Y-105060609D01*
X183519172Y-105060602D01*
X183373501Y-105000264D01*
X183373489Y-105000261D01*
X183218845Y-104969500D01*
X183218842Y-104969500D01*
X183061158Y-104969500D01*
X183061155Y-104969500D01*
X182906510Y-105000261D01*
X182906498Y-105000264D01*
X182760827Y-105060602D01*
X182760814Y-105060609D01*
X182629711Y-105148210D01*
X182629707Y-105148213D01*
X182518213Y-105259707D01*
X182518210Y-105259711D01*
X182430609Y-105390814D01*
X182430602Y-105390827D01*
X182370264Y-105536498D01*
X182370261Y-105536510D01*
X182339500Y-105691153D01*
X144380500Y-105691153D01*
X144380500Y-81774500D01*
X144400185Y-81707461D01*
X144452989Y-81661706D01*
X144504500Y-81650500D01*
X202885500Y-81650500D01*
X202952539Y-81670185D01*
G37*
%TD.AperFunction*%
%TD*%
M02*
